<?xml version="1.0" encoding="UTF-8" standalone="no"?>
<svg width="100%" height="100%" viewBox="0 0 176 173" version="1.1" xmlns="http://www.w3.org/2000/svg">
    <rect x="8" y="8" width="160" height="157" rx="46" style="fill:none;stroke:white;stroke-width:16px;"/>
    <g transform="translate(40 38.5) scale(0.1875)">
        <path d="M327.5 85.2c-4.5 1.7-7.5 6-7.5 10.8s3 9.1 7.5 10.8L384 128l21.2 56.5c1.7 4.5 6 7.5 10.8 7.5s9.1-3 10.8-7.5L448 128l56.5-21.2c4.5-1.7 7.5-6 7.5-10.8s-3-9.1-7.5-10.8L448 64 426.8 7.5C425.1 3 420.8 0 416 0s-9.1 3-10.8 7.5L384 64 327.5 85.2zM205.1 73.3c-2.6-5.7-8.3-9.3-14.5-9.3s-11.9 3.6-14.5 9.3L123.3 187.3 9.3 240C3.6 242.6 0 248.3 0 254.6s3.6 11.9 9.3 14.5l114.1 52.7L176 435.8c2.6 5.7 8.3 9.3 14.5 9.3s11.9-3.6 14.5-9.3l52.7-114.1 114.1-52.7c5.7-2.6 9.3-8.3 9.3-14.5s-3.6-11.9-9.3-14.5L257.8 187.4 205.1 73.3zM384 384l-56.5 21.2c-4.5 1.7-7.5 6-7.5 10.8s3 9.1 7.5 10.8L384 448l21.2 56.5c1.7 4.5 6 7.5 10.8 7.5s9.1-3 10.8-7.5L448 448l56.5-21.2c4.5-1.7 7.5-6 7.5-10.8s-3-9.1-7.5-10.8L448 384l-21.2-56.5c-1.7-4.5-6-7.5-10.8-7.5s-9.1 3-10.8 7.5L384 384z" style="fill:white;"/>
    </g>
</svg>
